<svg xmlns="http://www.w3.org/2000/svg" version="1.1" xmlns:xlink="http://www.w3.org/1999/xlink" xmlns:svgjs="http://svgjs.dev/svgjs" width="1440" height="560" preserveAspectRatio="none" viewBox="0 0 1440 560"><g mask="url(&quot;#SvgjsMask1008&quot;)" fill="none"><rect width="1440" height="560" x="0" y="0" fill="rgba(255, 255, 255, 1)"></rect><path d="M-110.06 498.02L-110.06 498.02" stroke="rgba(251, 136, 15, 1)" stroke-width="1.5"></path><path d="M-110.06 498.02L38.05 529.75" stroke="rgba(251, 136, 15, 1)" stroke-width="1.5"></path><path d="M-110.06 498.02L-60.54 712.34" stroke="rgba(251, 136, 15, 1)" stroke-width="1.5"></path><path d="M-110.06 498.02L63.27 695.34" stroke="rgba(251, 136, 15, 1)" stroke-width="1.5"></path><path d="M-110.06 498.02L211.05 375.03" stroke="rgba(251, 136, 15, 1)" stroke-width="1.5"></path><path d="M-60.54 712.34L-60.54 712.34" stroke="rgba(251, 136, 15, 1)" stroke-width="1.5"></path><path d="M-60.54 712.34L63.27 695.34" stroke="rgba(251, 136, 15, 1)" stroke-width="1.5"></path><path d="M-60.54 712.34L38.05 529.75" stroke="rgba(251, 136, 15, 1)" stroke-width="1.5"></path><path d="M-60.54 712.34L190.12 672.2" stroke="rgba(251, 136, 15, 1)" stroke-width="1.5"></path><path d="M-60.54 712.34L241.07 558.41" stroke="rgba(251, 136, 15, 1)" stroke-width="1.5"></path><path d="M-60.54 712.34L211.05 375.03" stroke="rgba(251, 136, 15, 1)" stroke-width="1.5"></path><path d="M38.05 529.75L38.05 529.75" stroke="rgba(251, 136, 15, 1)" stroke-width="1.5"></path><path d="M38.05 529.75L63.27 695.34" stroke="rgba(251, 136, 15, 1)" stroke-width="1.5"></path><path d="M38.05 529.75L241.07 558.41" stroke="rgba(251, 136, 15, 1)" stroke-width="1.5"></path><path d="M63.27 695.34L63.27 695.34" stroke="rgba(251, 136, 15, 1)" stroke-width="1.5"></path><path d="M63.27 695.34L190.12 672.2" stroke="rgba(251, 136, 15, 1)" stroke-width="1.5"></path><path d="M63.27 695.34L241.07 558.41" stroke="rgba(251, 136, 15, 1)" stroke-width="1.5"></path><path d="M211.05 375.03L211.05 375.03" stroke="rgba(251, 136, 15, 1)" stroke-width="1.5"></path><path d="M211.05 375.03L373.02 343.89" stroke="rgba(251, 136, 15, 1)" stroke-width="1.5"></path><path d="M211.05 375.03L241.07 558.41" stroke="rgba(251, 136, 15, 1)" stroke-width="1.5"></path><path d="M211.05 375.03L38.05 529.75" stroke="rgba(251, 136, 15, 1)" stroke-width="1.5"></path><path d="M211.05 375.03L393.56 531.25" stroke="rgba(251, 136, 15, 1)" stroke-width="1.5"></path><path d="M241.07 558.41L241.07 558.41" stroke="rgba(251, 136, 15, 1)" stroke-width="1.5"></path><path d="M241.07 558.41L190.12 672.2" stroke="rgba(251, 136, 15, 1)" stroke-width="1.5"></path><path d="M241.07 558.41L393.56 531.25" stroke="rgba(251, 136, 15, 1)" stroke-width="1.5"></path><path d="M190.12 672.2L190.12 672.2" stroke="rgba(251, 136, 15, 1)" stroke-width="1.5"></path><path d="M190.12 672.2L38.05 529.75" stroke="rgba(251, 136, 15, 1)" stroke-width="1.5"></path><path d="M190.12 672.2L400.11 657.68" stroke="rgba(251, 136, 15, 1)" stroke-width="1.5"></path><path d="M190.12 672.2L393.56 531.25" stroke="rgba(251, 136, 15, 1)" stroke-width="1.5"></path><path d="M373.02 343.89L373.02 343.89" stroke="rgba(251, 136, 15, 1)" stroke-width="1.5"></path><path d="M373.02 343.89L393.56 531.25" stroke="rgba(251, 136, 15, 1)" stroke-width="1.5"></path><path d="M373.02 343.89L241.07 558.41" stroke="rgba(251, 136, 15, 1)" stroke-width="1.5"></path><path d="M373.02 343.89L400.11 657.68" stroke="rgba(251, 136, 15, 1)" stroke-width="1.5"></path><path d="M373.02 343.89L683.9 407.15" stroke="rgba(251, 136, 15, 1)" stroke-width="1.5"></path><path d="M393.56 531.25L393.56 531.25" stroke="rgba(251, 136, 15, 1)" stroke-width="1.5"></path><path d="M393.56 531.25L400.11 657.68" stroke="rgba(251, 136, 15, 1)" stroke-width="1.5"></path><path d="M393.56 531.25L491.55 640.98" stroke="rgba(251, 136, 15, 1)" stroke-width="1.5"></path><path d="M400.11 657.68L400.11 657.68" stroke="rgba(251, 136, 15, 1)" stroke-width="1.5"></path><path d="M400.11 657.68L491.55 640.98" stroke="rgba(251, 136, 15, 1)" stroke-width="1.5"></path><path d="M400.11 657.68L241.07 558.41" stroke="rgba(251, 136, 15, 1)" stroke-width="1.5"></path><path d="M491.55 640.98L491.55 640.98" stroke="rgba(251, 136, 15, 1)" stroke-width="1.5"></path><path d="M491.55 640.98L639.55 693.8" stroke="rgba(251, 136, 15, 1)" stroke-width="1.5"></path><path d="M683.9 407.15L683.9 407.15" stroke="rgba(251, 136, 15, 1)" stroke-width="1.5"></path><path d="M683.9 407.15L680.45 550.92" stroke="rgba(251, 136, 15, 1)" stroke-width="1.5"></path><path d="M683.9 407.15L807.15 490.63" stroke="rgba(251, 136, 15, 1)" stroke-width="1.5"></path><path d="M680.45 550.92L680.45 550.92" stroke="rgba(251, 136, 15, 1)" stroke-width="1.5"></path><path d="M680.45 550.92L807.15 490.63" stroke="rgba(251, 136, 15, 1)" stroke-width="1.5"></path><path d="M680.45 550.92L639.55 693.8" stroke="rgba(251, 136, 15, 1)" stroke-width="1.5"></path><path d="M680.45 550.92L491.55 640.98" stroke="rgba(251, 136, 15, 1)" stroke-width="1.5"></path><path d="M639.55 693.8L639.55 693.8" stroke="rgba(251, 136, 15, 1)" stroke-width="1.5"></path><path d="M846.12 94.05L846.12 94.05" stroke="rgba(251, 136, 15, 1)" stroke-width="1.5"></path><path d="M846.12 94.05L845.45 254.77" stroke="rgba(251, 136, 15, 1)" stroke-width="1.5"></path><path d="M846.12 94.05L1007.11 93.28" stroke="rgba(251, 136, 15, 1)" stroke-width="1.5"></path><path d="M846.12 94.05L982.82 250.75" stroke="rgba(251, 136, 15, 1)" stroke-width="1.5"></path><path d="M846.12 94.05L969.33 -92.59" stroke="rgba(251, 136, 15, 1)" stroke-width="1.5"></path><path d="M846.12 94.05L1089.29 67.71" stroke="rgba(251, 136, 15, 1)" stroke-width="1.5"></path><path d="M846.12 94.05L847.77 396.72" stroke="rgba(251, 136, 15, 1)" stroke-width="1.5"></path><path d="M845.45 254.77L845.45 254.77" stroke="rgba(251, 136, 15, 1)" stroke-width="1.5"></path><path d="M845.45 254.77L982.82 250.75" stroke="rgba(251, 136, 15, 1)" stroke-width="1.5"></path><path d="M845.45 254.77L847.77 396.72" stroke="rgba(251, 136, 15, 1)" stroke-width="1.5"></path><path d="M847.77 396.72L847.77 396.72" stroke="rgba(251, 136, 15, 1)" stroke-width="1.5"></path><path d="M847.77 396.72L807.15 490.63" stroke="rgba(251, 136, 15, 1)" stroke-width="1.5"></path><path d="M807.15 490.63L807.15 490.63" stroke="rgba(251, 136, 15, 1)" stroke-width="1.5"></path><path d="M829.27 704.99L829.27 704.99" stroke="rgba(251, 136, 15, 1)" stroke-width="1.5"></path><path d="M829.27 704.99L985.34 640.74" stroke="rgba(251, 136, 15, 1)" stroke-width="1.5"></path><path d="M829.27 704.99L639.55 693.8" stroke="rgba(251, 136, 15, 1)" stroke-width="1.5"></path><path d="M829.27 704.99L680.45 550.92" stroke="rgba(251, 136, 15, 1)" stroke-width="1.5"></path><path d="M829.27 704.99L807.15 490.63" stroke="rgba(251, 136, 15, 1)" stroke-width="1.5"></path><path d="M829.27 704.99L963.15 504.38" stroke="rgba(251, 136, 15, 1)" stroke-width="1.5"></path><path d="M969.33 -92.59L969.33 -92.59" stroke="rgba(251, 136, 15, 1)" stroke-width="1.5"></path><path d="M969.33 -92.59L1007.11 93.28" stroke="rgba(251, 136, 15, 1)" stroke-width="1.5"></path><path d="M969.33 -92.59L1089.29 67.71" stroke="rgba(251, 136, 15, 1)" stroke-width="1.5"></path><path d="M969.33 -92.59L1147.71 192.58" stroke="rgba(251, 136, 15, 1)" stroke-width="1.5"></path><path d="M1007.11 93.28L1007.11 93.28" stroke="rgba(251, 136, 15, 1)" stroke-width="1.5"></path><path d="M1007.11 93.28L1089.29 67.71" stroke="rgba(251, 136, 15, 1)" stroke-width="1.5"></path><path d="M1007.11 93.28L982.82 250.75" stroke="rgba(251, 136, 15, 1)" stroke-width="1.5"></path><path d="M1007.11 93.28L1147.71 192.58" stroke="rgba(251, 136, 15, 1)" stroke-width="1.5"></path><path d="M982.82 250.75L982.82 250.75" stroke="rgba(251, 136, 15, 1)" stroke-width="1.5"></path><path d="M1004.7 408.89L1004.7 408.89" stroke="rgba(251, 136, 15, 1)" stroke-width="1.5"></path><path d="M1004.7 408.89L1107.25 401.09" stroke="rgba(251, 136, 15, 1)" stroke-width="1.5"></path><path d="M1004.7 408.89L963.15 504.38" stroke="rgba(251, 136, 15, 1)" stroke-width="1.5"></path><path d="M1004.7 408.89L1121.04 499.12" stroke="rgba(251, 136, 15, 1)" stroke-width="1.5"></path><path d="M1004.7 408.89L847.77 396.72" stroke="rgba(251, 136, 15, 1)" stroke-width="1.5"></path><path d="M1004.7 408.89L982.82 250.75" stroke="rgba(251, 136, 15, 1)" stroke-width="1.5"></path><path d="M963.15 504.38L963.15 504.38" stroke="rgba(251, 136, 15, 1)" stroke-width="1.5"></path><path d="M963.15 504.38L985.34 640.74" stroke="rgba(251, 136, 15, 1)" stroke-width="1.5"></path><path d="M985.34 640.74L985.34 640.74" stroke="rgba(251, 136, 15, 1)" stroke-width="1.5"></path><path d="M985.34 640.74L1129.33 644.35" stroke="rgba(251, 136, 15, 1)" stroke-width="1.5"></path><path d="M1089.29 67.71L1089.29 67.71" stroke="rgba(251, 136, 15, 1)" stroke-width="1.5"></path><path d="M1089.29 67.71L1147.71 192.58" stroke="rgba(251, 136, 15, 1)" stroke-width="1.5"></path><path d="M1089.29 67.71L1297.51 48.95" stroke="rgba(251, 136, 15, 1)" stroke-width="1.5"></path><path d="M1089.29 67.71L982.82 250.75" stroke="rgba(251, 136, 15, 1)" stroke-width="1.5"></path><path d="M1147.71 192.58L1147.71 192.58" stroke="rgba(251, 136, 15, 1)" stroke-width="1.5"></path><path d="M1147.71 192.58L1254.31 235.34" stroke="rgba(251, 136, 15, 1)" stroke-width="1.5"></path><path d="M1147.71 192.58L982.82 250.75" stroke="rgba(251, 136, 15, 1)" stroke-width="1.5"></path><path d="M1107.25 401.09L1107.25 401.09" stroke="rgba(251, 136, 15, 1)" stroke-width="1.5"></path><path d="M1107.25 401.09L1121.04 499.12" stroke="rgba(251, 136, 15, 1)" stroke-width="1.5"></path><path d="M1107.25 401.09L963.15 504.38" stroke="rgba(251, 136, 15, 1)" stroke-width="1.5"></path><path d="M1107.25 401.09L982.82 250.75" stroke="rgba(251, 136, 15, 1)" stroke-width="1.5"></path><path d="M1107.25 401.09L1310.06 372.97" stroke="rgba(251, 136, 15, 1)" stroke-width="1.5"></path><path d="M1107.25 401.09L1147.71 192.58" stroke="rgba(251, 136, 15, 1)" stroke-width="1.5"></path><path d="M1121.04 499.12L1121.04 499.12" stroke="rgba(251, 136, 15, 1)" stroke-width="1.5"></path><path d="M1121.04 499.12L1129.33 644.35" stroke="rgba(251, 136, 15, 1)" stroke-width="1.5"></path><path d="M1121.04 499.12L963.15 504.38" stroke="rgba(251, 136, 15, 1)" stroke-width="1.5"></path><path d="M1121.04 499.12L1308.47 525.35" stroke="rgba(251, 136, 15, 1)" stroke-width="1.5"></path><path d="M1129.33 644.35L1129.33 644.35" stroke="rgba(251, 136, 15, 1)" stroke-width="1.5"></path><path d="M1129.33 644.35L1287.2 697.16" stroke="rgba(251, 136, 15, 1)" stroke-width="1.5"></path><path d="M1129.33 644.35L1308.47 525.35" stroke="rgba(251, 136, 15, 1)" stroke-width="1.5"></path><path d="M1129.33 644.35L963.15 504.38" stroke="rgba(251, 136, 15, 1)" stroke-width="1.5"></path><path d="M1297.51 48.95L1297.51 48.95" stroke="rgba(251, 136, 15, 1)" stroke-width="1.5"></path><path d="M1297.51 48.95L1451.81 61.15" stroke="rgba(251, 136, 15, 1)" stroke-width="1.5"></path><path d="M1254.31 235.34L1254.31 235.34" stroke="rgba(251, 136, 15, 1)" stroke-width="1.5"></path><path d="M1254.31 235.34L1400.25 259.86" stroke="rgba(251, 136, 15, 1)" stroke-width="1.5"></path><path d="M1254.31 235.34L1310.06 372.97" stroke="rgba(251, 136, 15, 1)" stroke-width="1.5"></path><path d="M1310.06 372.97L1310.06 372.97" stroke="rgba(251, 136, 15, 1)" stroke-width="1.5"></path><path d="M1310.06 372.97L1420.86 389.02" stroke="rgba(251, 136, 15, 1)" stroke-width="1.5"></path><path d="M1310.06 372.97L1400.25 259.86" stroke="rgba(251, 136, 15, 1)" stroke-width="1.5"></path><path d="M1310.06 372.97L1308.47 525.35" stroke="rgba(251, 136, 15, 1)" stroke-width="1.5"></path><path d="M1310.06 372.97L1392.73 537.85" stroke="rgba(251, 136, 15, 1)" stroke-width="1.5"></path><path d="M1308.47 525.35L1308.47 525.35" stroke="rgba(251, 136, 15, 1)" stroke-width="1.5"></path><path d="M1308.47 525.35L1392.73 537.85" stroke="rgba(251, 136, 15, 1)" stroke-width="1.5"></path><path d="M1308.47 525.35L1287.2 697.16" stroke="rgba(251, 136, 15, 1)" stroke-width="1.5"></path><path d="M1308.47 525.35L1420.86 389.02" stroke="rgba(251, 136, 15, 1)" stroke-width="1.5"></path><path d="M1287.2 697.16L1287.2 697.16" stroke="rgba(251, 136, 15, 1)" stroke-width="1.5"></path><path d="M1287.2 697.16L1403.33 691.47" stroke="rgba(251, 136, 15, 1)" stroke-width="1.5"></path><path d="M1414.61 -52.99L1414.61 -52.99" stroke="rgba(251, 136, 15, 1)" stroke-width="1.5"></path><path d="M1414.61 -52.99L1451.81 61.15" stroke="rgba(251, 136, 15, 1)" stroke-width="1.5"></path><path d="M1414.61 -52.99L1297.51 48.95" stroke="rgba(251, 136, 15, 1)" stroke-width="1.5"></path><path d="M1414.61 -52.99L1572.24 -84.72" stroke="rgba(251, 136, 15, 1)" stroke-width="1.5"></path><path d="M1414.61 -52.99L1586.01 80.83" stroke="rgba(251, 136, 15, 1)" stroke-width="1.5"></path><path d="M1414.61 -52.99L1605.39 191.05" stroke="rgba(251, 136, 15, 1)" stroke-width="1.5"></path><path d="M1451.81 61.15L1451.81 61.15" stroke="rgba(251, 136, 15, 1)" stroke-width="1.5"></path><path d="M1451.81 61.15L1586.01 80.83" stroke="rgba(251, 136, 15, 1)" stroke-width="1.5"></path><path d="M1451.81 61.15L1572.24 -84.72" stroke="rgba(251, 136, 15, 1)" stroke-width="1.5"></path><path d="M1451.81 61.15L1605.39 191.05" stroke="rgba(251, 136, 15, 1)" stroke-width="1.5"></path><path d="M1451.81 61.15L1400.25 259.86" stroke="rgba(251, 136, 15, 1)" stroke-width="1.5"></path><path d="M1400.25 259.86L1400.25 259.86" stroke="rgba(251, 136, 15, 1)" stroke-width="1.5"></path><path d="M1400.25 259.86L1420.86 389.02" stroke="rgba(251, 136, 15, 1)" stroke-width="1.5"></path><path d="M1420.86 389.02L1420.86 389.02" stroke="rgba(251, 136, 15, 1)" stroke-width="1.5"></path><path d="M1420.86 389.02L1547.77 405.12" stroke="rgba(251, 136, 15, 1)" stroke-width="1.5"></path><path d="M1420.86 389.02L1392.73 537.85" stroke="rgba(251, 136, 15, 1)" stroke-width="1.5"></path><path d="M1420.86 389.02L1538.06 500.4" stroke="rgba(251, 136, 15, 1)" stroke-width="1.5"></path><path d="M1392.73 537.85L1392.73 537.85" stroke="rgba(251, 136, 15, 1)" stroke-width="1.5"></path><path d="M1403.33 691.47L1403.33 691.47" stroke="rgba(251, 136, 15, 1)" stroke-width="1.5"></path><path d="M1403.33 691.47L1547.94 639.38" stroke="rgba(251, 136, 15, 1)" stroke-width="1.5"></path><path d="M1403.33 691.47L1392.73 537.85" stroke="rgba(251, 136, 15, 1)" stroke-width="1.5"></path><path d="M1403.33 691.47L1308.47 525.35" stroke="rgba(251, 136, 15, 1)" stroke-width="1.5"></path><path d="M1403.33 691.47L1538.06 500.4" stroke="rgba(251, 136, 15, 1)" stroke-width="1.5"></path><path d="M1572.24 -84.72L1572.24 -84.72" stroke="rgba(251, 136, 15, 1)" stroke-width="1.5"></path><path d="M1572.24 -84.72L1586.01 80.83" stroke="rgba(251, 136, 15, 1)" stroke-width="1.5"></path><path d="M1572.24 -84.72L1605.39 191.05" stroke="rgba(251, 136, 15, 1)" stroke-width="1.5"></path><path d="M1572.24 -84.72L1297.51 48.95" stroke="rgba(251, 136, 15, 1)" stroke-width="1.5"></path><path d="M1586.01 80.83L1586.01 80.83" stroke="rgba(251, 136, 15, 1)" stroke-width="1.5"></path><path d="M1586.01 80.83L1605.39 191.05" stroke="rgba(251, 136, 15, 1)" stroke-width="1.5"></path><path d="M1586.01 80.83L1400.25 259.86" stroke="rgba(251, 136, 15, 1)" stroke-width="1.5"></path><path d="M1586.01 80.83L1297.51 48.95" stroke="rgba(251, 136, 15, 1)" stroke-width="1.5"></path><path d="M1605.39 191.05L1605.39 191.05" stroke="rgba(251, 136, 15, 1)" stroke-width="1.5"></path><path d="M1547.77 405.12L1547.77 405.12" stroke="rgba(251, 136, 15, 1)" stroke-width="1.5"></path><path d="M1547.77 405.12L1538.06 500.4" stroke="rgba(251, 136, 15, 1)" stroke-width="1.5"></path><path d="M1538.06 500.4L1538.06 500.4" stroke="rgba(251, 136, 15, 1)" stroke-width="1.5"></path><path d="M1538.06 500.4L1547.94 639.38" stroke="rgba(251, 136, 15, 1)" stroke-width="1.5"></path><path d="M1538.06 500.4L1392.73 537.85" stroke="rgba(251, 136, 15, 1)" stroke-width="1.5"></path><path d="M1547.94 639.38L1547.94 639.38" stroke="rgba(251, 136, 15, 1)" stroke-width="1.5"></path><circle r="5" cx="-110.06" cy="498.02" fill="rgba(251, 136, 15, 1)"></circle><circle r="5" cx="-60.54" cy="712.34" fill="rgba(251, 136, 15, 1)"></circle><circle r="5" cx="38.05" cy="529.75" fill="rgba(251, 136, 15, 1)"></circle><circle r="5" cx="63.27" cy="695.34" fill="rgba(251, 136, 15, 1)"></circle><circle r="5" cx="211.05" cy="375.03" fill="rgba(251, 136, 15, 1)"></circle><circle r="5" cx="241.07" cy="558.41" fill="rgba(251, 136, 15, 1)"></circle><circle r="5" cx="190.12" cy="672.2" fill="rgba(251, 136, 15, 1)"></circle><circle r="5" cx="373.02" cy="343.89" fill="rgba(251, 136, 15, 1)"></circle><circle r="5" cx="393.56" cy="531.25" fill="rgba(251, 136, 15, 1)"></circle><circle r="5" cx="400.11" cy="657.68" fill="rgba(251, 136, 15, 1)"></circle><circle r="5" cx="491.55" cy="640.98" fill="rgba(251, 136, 15, 1)"></circle><circle r="5" cx="683.9" cy="407.15" fill="rgba(251, 136, 15, 1)"></circle><circle r="5" cx="680.45" cy="550.92" fill="rgba(251, 136, 15, 1)"></circle><circle r="5" cx="639.55" cy="693.8" fill="rgba(251, 136, 15, 1)"></circle><circle r="5" cx="846.12" cy="94.05" fill="rgba(251, 136, 15, 1)"></circle><circle r="5" cx="845.45" cy="254.77" fill="rgba(251, 136, 15, 1)"></circle><circle r="5" cx="847.77" cy="396.72" fill="rgba(251, 136, 15, 1)"></circle><circle r="5" cx="807.15" cy="490.63" fill="rgba(251, 136, 15, 1)"></circle><circle r="5" cx="829.27" cy="704.99" fill="rgba(251, 136, 15, 1)"></circle><circle r="5" cx="969.33" cy="-92.59" fill="rgba(251, 136, 15, 1)"></circle><circle r="5" cx="1007.11" cy="93.28" fill="rgba(251, 136, 15, 1)"></circle><circle r="5" cx="982.82" cy="250.75" fill="rgba(251, 136, 15, 1)"></circle><circle r="5" cx="1004.7" cy="408.89" fill="rgba(251, 136, 15, 1)"></circle><circle r="5" cx="963.15" cy="504.38" fill="rgba(251, 136, 15, 1)"></circle><circle r="5" cx="985.34" cy="640.74" fill="rgba(251, 136, 15, 1)"></circle><circle r="5" cx="1089.29" cy="67.71" fill="rgba(251, 136, 15, 1)"></circle><circle r="5" cx="1147.71" cy="192.58" fill="rgba(251, 136, 15, 1)"></circle><circle r="5" cx="1107.25" cy="401.09" fill="rgba(251, 136, 15, 1)"></circle><circle r="5" cx="1121.04" cy="499.12" fill="rgba(251, 136, 15, 1)"></circle><circle r="5" cx="1129.33" cy="644.35" fill="rgba(251, 136, 15, 1)"></circle><circle r="5" cx="1297.51" cy="48.95" fill="rgba(251, 136, 15, 1)"></circle><circle r="5" cx="1254.31" cy="235.34" fill="rgba(251, 136, 15, 1)"></circle><circle r="5" cx="1310.06" cy="372.97" fill="rgba(251, 136, 15, 1)"></circle><circle r="5" cx="1308.47" cy="525.35" fill="rgba(251, 136, 15, 1)"></circle><circle r="5" cx="1287.2" cy="697.16" fill="rgba(251, 136, 15, 1)"></circle><circle r="5" cx="1414.61" cy="-52.99" fill="rgba(251, 136, 15, 1)"></circle><circle r="5" cx="1451.81" cy="61.15" fill="rgba(251, 136, 15, 1)"></circle><circle r="5" cx="1400.25" cy="259.86" fill="rgba(251, 136, 15, 1)"></circle><circle r="5" cx="1420.86" cy="389.02" fill="rgba(251, 136, 15, 1)"></circle><circle r="5" cx="1392.73" cy="537.85" fill="rgba(251, 136, 15, 1)"></circle><circle r="5" cx="1403.33" cy="691.47" fill="rgba(251, 136, 15, 1)"></circle><circle r="5" cx="1572.24" cy="-84.72" fill="rgba(251, 136, 15, 1)"></circle><circle r="5" cx="1586.01" cy="80.83" fill="rgba(251, 136, 15, 1)"></circle><circle r="5" cx="1605.39" cy="191.05" fill="rgba(251, 136, 15, 1)"></circle><circle r="5" cx="1547.77" cy="405.12" fill="rgba(251, 136, 15, 1)"></circle><circle r="5" cx="1538.06" cy="500.4" fill="rgba(251, 136, 15, 1)"></circle><circle r="5" cx="1547.94" cy="639.38" fill="rgba(251, 136, 15, 1)"></circle><path d="M250.05 673.81L250.05 673.81" stroke="hsl(24, 100%, 68.8%)" stroke-width="1.5"></path><path d="M250.05 673.81L380.61 644.8" stroke="hsl(24, 100%, 68.8%)" stroke-width="1.5"></path><path d="M250.05 673.81L383.61 543.01" stroke="hsl(24, 100%, 68.8%)" stroke-width="1.5"></path><path d="M250.05 673.81L205.68 490.5" stroke="hsl(24, 100%, 68.8%)" stroke-width="1.5"></path><path d="M250.05 673.81L40.57 661.63" stroke="hsl(24, 100%, 68.8%)" stroke-width="1.5"></path><path d="M250.05 673.81L83.66 527.62" stroke="hsl(24, 100%, 68.8%)" stroke-width="1.5"></path><path d="M511.06 403.69L511.06 403.69" stroke="hsl(24, 100%, 68.8%)" stroke-width="1.5"></path><path d="M511.06 403.69L561.58 557.98" stroke="hsl(24, 100%, 68.8%)" stroke-width="1.5"></path><path d="M511.06 403.69L692.69 404.98" stroke="hsl(24, 100%, 68.8%)" stroke-width="1.5"></path><path d="M511.06 403.69L383.61 543.01" stroke="hsl(24, 100%, 68.8%)" stroke-width="1.5"></path><path d="M511.06 403.69L668.16 527.11" stroke="hsl(24, 100%, 68.8%)" stroke-width="1.5"></path><path d="M511.06 403.69L380.61 644.8" stroke="hsl(24, 100%, 68.8%)" stroke-width="1.5"></path><path d="M511.06 403.69L497.2 679.34" stroke="hsl(24, 100%, 68.8%)" stroke-width="1.5"></path><path d="M497.2 679.34L497.2 679.34" stroke="hsl(24, 100%, 68.8%)" stroke-width="1.5"></path><path d="M497.2 679.34L380.61 644.8" stroke="hsl(24, 100%, 68.8%)" stroke-width="1.5"></path><path d="M497.2 679.34L561.58 557.98" stroke="hsl(24, 100%, 68.8%)" stroke-width="1.5"></path><path d="M497.2 679.34L383.61 543.01" stroke="hsl(24, 100%, 68.8%)" stroke-width="1.5"></path><path d="M497.2 679.34L676.58 639.32" stroke="hsl(24, 100%, 68.8%)" stroke-width="1.5"></path><path d="M832.05 355.5L832.05 355.5" stroke="hsl(24, 100%, 68.8%)" stroke-width="1.5"></path><path d="M832.05 355.5L950.92 350.35" stroke="hsl(24, 100%, 68.8%)" stroke-width="1.5"></path><path d="M832.05 355.5L692.69 404.98" stroke="hsl(24, 100%, 68.8%)" stroke-width="1.5"></path><path d="M832.05 355.5L842.57 515.59" stroke="hsl(24, 100%, 68.8%)" stroke-width="1.5"></path><path d="M1261.25 249.92L1261.25 249.92" stroke="hsl(24, 100%, 68.8%)" stroke-width="1.5"></path><path d="M1261.25 249.92L1242.89 398.06" stroke="hsl(24, 100%, 68.8%)" stroke-width="1.5"></path><path d="M1261.25 249.92L1103.67 257.38" stroke="hsl(24, 100%, 68.8%)" stroke-width="1.5"></path><path d="M1261.25 249.92L1151.45 369.38" stroke="hsl(24, 100%, 68.8%)" stroke-width="1.5"></path><path d="M1261.25 249.92L1420.9 213.83" stroke="hsl(24, 100%, 68.8%)" stroke-width="1.5"></path><path d="M1261.25 249.92L1295.94 65.93" stroke="hsl(24, 100%, 68.8%)" stroke-width="1.5"></path><path d="M1420.9 213.83L1420.9 213.83" stroke="hsl(24, 100%, 68.8%)" stroke-width="1.5"></path><path d="M1420.9 213.83L1421.19 62.55" stroke="hsl(24, 100%, 68.8%)" stroke-width="1.5"></path><path d="M1420.9 213.83L1605.19 209.07" stroke="hsl(24, 100%, 68.8%)" stroke-width="1.5"></path><path d="M1555.25 518.13L1555.25 518.13" stroke="hsl(24, 100%, 68.8%)" stroke-width="1.5"></path><path d="M1555.25 518.13L1444.43 527.09" stroke="hsl(24, 100%, 68.8%)" stroke-width="1.5"></path><path d="M1555.25 518.13L1544.62 641.41" stroke="hsl(24, 100%, 68.8%)" stroke-width="1.5"></path><path d="M-85.41 498.91L-85.41 498.91" stroke="hsl(24, 100%, 68.8%)" stroke-width="1.5"></path><path d="M-85.41 498.91L83.66 527.62" stroke="hsl(24, 100%, 68.8%)" stroke-width="1.5"></path><path d="M-85.41 498.91L-50.51 701.45" stroke="hsl(24, 100%, 68.8%)" stroke-width="1.5"></path><path d="M-85.41 498.91L40.57 661.63" stroke="hsl(24, 100%, 68.8%)" stroke-width="1.5"></path><path d="M-85.41 498.91L205.68 490.5" stroke="hsl(24, 100%, 68.8%)" stroke-width="1.5"></path><path d="M-50.51 701.45L-50.51 701.45" stroke="hsl(24, 100%, 68.8%)" stroke-width="1.5"></path><path d="M-50.51 701.45L40.57 661.63" stroke="hsl(24, 100%, 68.8%)" stroke-width="1.5"></path><path d="M-50.51 701.45L83.66 527.62" stroke="hsl(24, 100%, 68.8%)" stroke-width="1.5"></path><path d="M-50.51 701.45L250.05 673.81" stroke="hsl(24, 100%, 68.8%)" stroke-width="1.5"></path><path d="M-50.51 701.45L205.68 490.5" stroke="hsl(24, 100%, 68.8%)" stroke-width="1.5"></path><path d="M-50.51 701.45L380.61 644.8" stroke="hsl(24, 100%, 68.8%)" stroke-width="1.5"></path><path d="M83.66 527.62L83.66 527.62" stroke="hsl(24, 100%, 68.8%)" stroke-width="1.5"></path><path d="M83.66 527.62L205.68 490.5" stroke="hsl(24, 100%, 68.8%)" stroke-width="1.5"></path><path d="M83.66 527.62L40.57 661.63" stroke="hsl(24, 100%, 68.8%)" stroke-width="1.5"></path><path d="M40.57 661.63L40.57 661.63" stroke="hsl(24, 100%, 68.8%)" stroke-width="1.5"></path><path d="M205.68 490.5L205.68 490.5" stroke="hsl(24, 100%, 68.8%)" stroke-width="1.5"></path><path d="M205.68 490.5L383.61 543.01" stroke="hsl(24, 100%, 68.8%)" stroke-width="1.5"></path><path d="M383.61 543.01L383.61 543.01" stroke="hsl(24, 100%, 68.8%)" stroke-width="1.5"></path><path d="M383.61 543.01L380.61 644.8" stroke="hsl(24, 100%, 68.8%)" stroke-width="1.5"></path><path d="M383.61 543.01L561.58 557.98" stroke="hsl(24, 100%, 68.8%)" stroke-width="1.5"></path><path d="M380.61 644.8L380.61 644.8" stroke="hsl(24, 100%, 68.8%)" stroke-width="1.5"></path><path d="M561.58 557.98L561.58 557.98" stroke="hsl(24, 100%, 68.8%)" stroke-width="1.5"></path><path d="M561.58 557.98L668.16 527.11" stroke="hsl(24, 100%, 68.8%)" stroke-width="1.5"></path><path d="M692.69 404.98L692.69 404.98" stroke="hsl(24, 100%, 68.8%)" stroke-width="1.5"></path><path d="M692.69 404.98L668.16 527.11" stroke="hsl(24, 100%, 68.8%)" stroke-width="1.5"></path><path d="M668.16 527.11L668.16 527.11" stroke="hsl(24, 100%, 68.8%)" stroke-width="1.5"></path><path d="M668.16 527.11L676.58 639.32" stroke="hsl(24, 100%, 68.8%)" stroke-width="1.5"></path><path d="M668.16 527.11L842.57 515.59" stroke="hsl(24, 100%, 68.8%)" stroke-width="1.5"></path><path d="M668.16 527.11L802.18 643.15" stroke="hsl(24, 100%, 68.8%)" stroke-width="1.5"></path><path d="M676.58 639.32L676.58 639.32" stroke="hsl(24, 100%, 68.8%)" stroke-width="1.5"></path><path d="M676.58 639.32L802.18 643.15" stroke="hsl(24, 100%, 68.8%)" stroke-width="1.5"></path><path d="M676.58 639.32L561.58 557.98" stroke="hsl(24, 100%, 68.8%)" stroke-width="1.5"></path><path d="M842.57 515.59L842.57 515.59" stroke="hsl(24, 100%, 68.8%)" stroke-width="1.5"></path><path d="M842.57 515.59L802.18 643.15" stroke="hsl(24, 100%, 68.8%)" stroke-width="1.5"></path><path d="M842.57 515.59L1011.25 502" stroke="hsl(24, 100%, 68.8%)" stroke-width="1.5"></path><path d="M802.18 643.15L802.18 643.15" stroke="hsl(24, 100%, 68.8%)" stroke-width="1.5"></path><path d="M802.18 643.15L1011.25 502" stroke="hsl(24, 100%, 68.8%)" stroke-width="1.5"></path><path d="M802.18 643.15L561.58 557.98" stroke="hsl(24, 100%, 68.8%)" stroke-width="1.5"></path><path d="M966.9 257.27L966.9 257.27" stroke="hsl(24, 100%, 68.8%)" stroke-width="1.5"></path><path d="M966.9 257.27L950.92 350.35" stroke="hsl(24, 100%, 68.8%)" stroke-width="1.5"></path><path d="M966.9 257.27L1103.67 257.38" stroke="hsl(24, 100%, 68.8%)" stroke-width="1.5"></path><path d="M966.9 257.27L832.05 355.5" stroke="hsl(24, 100%, 68.8%)" stroke-width="1.5"></path><path d="M950.92 350.35L950.92 350.35" stroke="hsl(24, 100%, 68.8%)" stroke-width="1.5"></path><path d="M950.92 350.35L1011.25 502" stroke="hsl(24, 100%, 68.8%)" stroke-width="1.5"></path><path d="M1011.25 502L1011.25 502" stroke="hsl(24, 100%, 68.8%)" stroke-width="1.5"></path><path d="M1011.25 502L1094.66 497.17" stroke="hsl(24, 100%, 68.8%)" stroke-width="1.5"></path><path d="M1103.67 257.38L1103.67 257.38" stroke="hsl(24, 100%, 68.8%)" stroke-width="1.5"></path><path d="M1103.67 257.38L1151.45 369.38" stroke="hsl(24, 100%, 68.8%)" stroke-width="1.5"></path><path d="M1103.67 257.38L950.92 350.35" stroke="hsl(24, 100%, 68.8%)" stroke-width="1.5"></path><path d="M1103.67 257.38L1242.89 398.06" stroke="hsl(24, 100%, 68.8%)" stroke-width="1.5"></path><path d="M1103.67 257.38L1094.66 497.17" stroke="hsl(24, 100%, 68.8%)" stroke-width="1.5"></path><path d="M1151.45 369.38L1151.45 369.38" stroke="hsl(24, 100%, 68.8%)" stroke-width="1.5"></path><path d="M1151.45 369.38L1242.89 398.06" stroke="hsl(24, 100%, 68.8%)" stroke-width="1.5"></path><path d="M1094.66 497.17L1094.66 497.17" stroke="hsl(24, 100%, 68.8%)" stroke-width="1.5"></path><path d="M1094.66 497.17L1151.45 369.38" stroke="hsl(24, 100%, 68.8%)" stroke-width="1.5"></path><path d="M1094.66 497.17L1242.89 398.06" stroke="hsl(24, 100%, 68.8%)" stroke-width="1.5"></path><path d="M1094.66 497.17L1157.91 691.04" stroke="hsl(24, 100%, 68.8%)" stroke-width="1.5"></path><path d="M1094.66 497.17L950.92 350.35" stroke="hsl(24, 100%, 68.8%)" stroke-width="1.5"></path><path d="M1094.66 497.17L1307.94 548.45" stroke="hsl(24, 100%, 68.8%)" stroke-width="1.5"></path><path d="M1157.91 691.04L1157.91 691.04" stroke="hsl(24, 100%, 68.8%)" stroke-width="1.5"></path><path d="M1157.91 691.04L1304.36 699.84" stroke="hsl(24, 100%, 68.8%)" stroke-width="1.5"></path><path d="M1298.06 -81.81L1298.06 -81.81" stroke="hsl(24, 100%, 68.8%)" stroke-width="1.5"></path><path d="M1298.06 -81.81L1430.29 -48.94" stroke="hsl(24, 100%, 68.8%)" stroke-width="1.5"></path><path d="M1298.06 -81.81L1295.94 65.93" stroke="hsl(24, 100%, 68.8%)" stroke-width="1.5"></path><path d="M1298.06 -81.81L1421.19 62.55" stroke="hsl(24, 100%, 68.8%)" stroke-width="1.5"></path><path d="M1295.94 65.93L1295.94 65.93" stroke="hsl(24, 100%, 68.8%)" stroke-width="1.5"></path><path d="M1295.94 65.93L1421.19 62.55" stroke="hsl(24, 100%, 68.8%)" stroke-width="1.5"></path><path d="M1295.94 65.93L1430.29 -48.94" stroke="hsl(24, 100%, 68.8%)" stroke-width="1.5"></path><path d="M1242.89 398.06L1242.89 398.06" stroke="hsl(24, 100%, 68.8%)" stroke-width="1.5"></path><path d="M1307.94 548.45L1307.94 548.45" stroke="hsl(24, 100%, 68.8%)" stroke-width="1.5"></path><path d="M1307.94 548.45L1444.43 527.09" stroke="hsl(24, 100%, 68.8%)" stroke-width="1.5"></path><path d="M1304.36 699.84L1304.36 699.84" stroke="hsl(24, 100%, 68.8%)" stroke-width="1.5"></path><path d="M1304.36 699.84L1446.42 705.9" stroke="hsl(24, 100%, 68.8%)" stroke-width="1.5"></path><path d="M1304.36 699.84L1307.94 548.45" stroke="hsl(24, 100%, 68.8%)" stroke-width="1.5"></path><path d="M1430.29 -48.94L1430.29 -48.94" stroke="hsl(24, 100%, 68.8%)" stroke-width="1.5"></path><path d="M1430.29 -48.94L1421.19 62.55" stroke="hsl(24, 100%, 68.8%)" stroke-width="1.5"></path><path d="M1421.19 62.55L1421.19 62.55" stroke="hsl(24, 100%, 68.8%)" stroke-width="1.5"></path><path d="M1444.43 527.09L1444.43 527.09" stroke="hsl(24, 100%, 68.8%)" stroke-width="1.5"></path><path d="M1444.43 527.09L1544.62 641.41" stroke="hsl(24, 100%, 68.8%)" stroke-width="1.5"></path><path d="M1444.43 527.09L1446.42 705.9" stroke="hsl(24, 100%, 68.8%)" stroke-width="1.5"></path><path d="M1446.42 705.9L1446.42 705.9" stroke="hsl(24, 100%, 68.8%)" stroke-width="1.5"></path><path d="M1446.42 705.9L1544.62 641.41" stroke="hsl(24, 100%, 68.8%)" stroke-width="1.5"></path><path d="M1558.96 -109.94L1558.96 -109.94" stroke="hsl(24, 100%, 68.8%)" stroke-width="1.5"></path><path d="M1558.96 -109.94L1430.29 -48.94" stroke="hsl(24, 100%, 68.8%)" stroke-width="1.5"></path><path d="M1558.96 -109.94L1588.91 96.36" stroke="hsl(24, 100%, 68.8%)" stroke-width="1.5"></path><path d="M1558.96 -109.94L1421.19 62.55" stroke="hsl(24, 100%, 68.8%)" stroke-width="1.5"></path><path d="M1588.91 96.36L1588.91 96.36" stroke="hsl(24, 100%, 68.8%)" stroke-width="1.5"></path><path d="M1588.91 96.36L1605.19 209.07" stroke="hsl(24, 100%, 68.8%)" stroke-width="1.5"></path><path d="M1588.91 96.36L1421.19 62.55" stroke="hsl(24, 100%, 68.8%)" stroke-width="1.5"></path><path d="M1588.91 96.36L1420.9 213.83" stroke="hsl(24, 100%, 68.8%)" stroke-width="1.5"></path><path d="M1605.19 209.07L1605.19 209.07" stroke="hsl(24, 100%, 68.8%)" stroke-width="1.5"></path><path d="M1571.64 394.49L1571.64 394.49" stroke="hsl(24, 100%, 68.8%)" stroke-width="1.5"></path><path d="M1571.64 394.49L1555.25 518.13" stroke="hsl(24, 100%, 68.8%)" stroke-width="1.5"></path><path d="M1571.64 394.49L1444.43 527.09" stroke="hsl(24, 100%, 68.8%)" stroke-width="1.5"></path><path d="M1571.64 394.49L1605.19 209.07" stroke="hsl(24, 100%, 68.8%)" stroke-width="1.5"></path><path d="M1571.64 394.49L1420.9 213.83" stroke="hsl(24, 100%, 68.8%)" stroke-width="1.5"></path><path d="M1571.64 394.49L1544.62 641.41" stroke="hsl(24, 100%, 68.8%)" stroke-width="1.5"></path><path d="M1571.64 394.49L1588.91 96.36" stroke="hsl(24, 100%, 68.8%)" stroke-width="1.5"></path><path d="M1544.62 641.41L1544.62 641.41" stroke="hsl(24, 100%, 68.8%)" stroke-width="1.5"></path><path d="M1544.62 641.41L1304.36 699.84" stroke="hsl(24, 100%, 68.8%)" stroke-width="1.5"></path><circle r="25" cx="250.05" cy="673.81" fill="url(&quot;#SvgjsRadialGradient1009&quot;)"></circle><circle r="25" cx="511.06" cy="403.69" fill="url(&quot;#SvgjsRadialGradient1009&quot;)"></circle><circle r="25" cx="497.2" cy="679.34" fill="url(&quot;#SvgjsRadialGradient1009&quot;)"></circle><circle r="25" cx="832.05" cy="355.5" fill="url(&quot;#SvgjsRadialGradient1009&quot;)"></circle><circle r="25" cx="1261.25" cy="249.92" fill="url(&quot;#SvgjsRadialGradient1009&quot;)"></circle><circle r="25" cx="1420.9" cy="213.83" fill="url(&quot;#SvgjsRadialGradient1009&quot;)"></circle><circle r="25" cx="1555.25" cy="518.13" fill="url(&quot;#SvgjsRadialGradient1009&quot;)"></circle><circle r="5" cx="-85.41" cy="498.91" fill="#ffb787"></circle><circle r="5" cx="-50.51" cy="701.45" fill="#ffb787"></circle><circle r="5" cx="83.66" cy="527.62" fill="#ffb787"></circle><circle r="5" cx="40.57" cy="661.63" fill="#ffb787"></circle><circle r="5" cx="205.68" cy="490.5" fill="#ffb787"></circle><circle r="5" cx="383.61" cy="543.01" fill="#ffb787"></circle><circle r="5" cx="380.61" cy="644.8" fill="#ffb787"></circle><circle r="5" cx="561.58" cy="557.98" fill="#ffb787"></circle><circle r="5" cx="692.69" cy="404.98" fill="#ffb787"></circle><circle r="5" cx="668.16" cy="527.11" fill="#ffb787"></circle><circle r="5" cx="676.58" cy="639.32" fill="#ffb787"></circle><circle r="5" cx="842.57" cy="515.59" fill="#ffb787"></circle><circle r="5" cx="802.18" cy="643.15" fill="#ffb787"></circle><circle r="5" cx="966.9" cy="257.27" fill="#ffb787"></circle><circle r="5" cx="950.92" cy="350.35" fill="#ffb787"></circle><circle r="5" cx="1011.25" cy="502" fill="#ffb787"></circle><circle r="5" cx="1103.67" cy="257.38" fill="#ffb787"></circle><circle r="5" cx="1151.45" cy="369.38" fill="#ffb787"></circle><circle r="5" cx="1094.66" cy="497.17" fill="#ffb787"></circle><circle r="5" cx="1157.91" cy="691.04" fill="#ffb787"></circle><circle r="5" cx="1298.06" cy="-81.81" fill="#ffb787"></circle><circle r="5" cx="1295.94" cy="65.93" fill="#ffb787"></circle><circle r="5" cx="1242.89" cy="398.06" fill="#ffb787"></circle><circle r="5" cx="1307.94" cy="548.45" fill="#ffb787"></circle><circle r="5" cx="1304.36" cy="699.84" fill="#ffb787"></circle><circle r="5" cx="1430.29" cy="-48.94" fill="#ffb787"></circle><circle r="5" cx="1421.19" cy="62.55" fill="#ffb787"></circle><circle r="5" cx="1444.43" cy="527.09" fill="#ffb787"></circle><circle r="5" cx="1446.42" cy="705.9" fill="#ffb787"></circle><circle r="5" cx="1558.96" cy="-109.94" fill="#ffb787"></circle><circle r="5" cx="1588.91" cy="96.36" fill="#ffb787"></circle><circle r="5" cx="1605.19" cy="209.07" fill="#ffb787"></circle><circle r="5" cx="1571.64" cy="394.49" fill="#ffb787"></circle><circle r="5" cx="1544.62" cy="641.41" fill="#ffb787"></circle></g><defs><mask id="SvgjsMask1008"><rect width="1440" height="560" fill="#ffffff"></rect></mask><radialGradient id="SvgjsRadialGradient1009"><stop stop-color="#ffffff" offset="0.1"></stop><stop stop-color="rgba(255, 111, 15, 1)" offset="0.2"></stop><stop stop-color="rgba(255, 111, 15, 0)" offset="1"></stop></radialGradient></defs></svg>